<svg viewBox="0 0 195 46" fill="none" xmlns="http://www.w3.org/2000/svg"><path fill-rule="evenodd" clip-rule="evenodd" d="M33.7 31.2c0 4.12-1.75 7.46-7.46 7.46h-6.48c-5.71 0-7.46-3.34-7.46-7.46v-2.51c0-2.1.86-3.98 2.24-5.33l2.3-2.29-3.75-3.73c-1.01-.96-.29-1.87-.08-2.1l.37-.36c.97-1.02 1.87-.28 2.1-.07l6.36 6.37-3.9 3.9c-.95.91-1.87 1.74-1.87 3.6v2.52c0 2.77 1.36 3.6 3.69 3.69h6.48c2.33-.1 3.69-.92 3.69-3.7v-2.5c0-1.87-.92-2.7-1.86-3.6L13.39 10.4c-1.03-.99-.26-1.9-.07-2.11l.42-.43.02-.02.05-.05c.96-.92 1.84-.2 2.04 0l.04.04 13.63 13.6v-.01l1.94 1.93a7.44 7.44 0 012.24 5.33v2.5zM40.21 0H5.8A5.8 5.8 0 000 5.79V40.2A5.8 5.8 0 005.79 46H40.2A5.8 5.8 0 0046 40.21V5.8A5.8 5.8 0 0040.21 0zM62 29.98V15.43h5.03l2.57 10.61 2.57-10.61h5.03v14.55h-2.96V18.72h-.32l-2.84 10.62h-2.96l-2.85-10.62h-.32v11.26H62zm18.1 0v-10.7h2.88v10.7H80.1zm0-12.07V15h2.88v2.91H80.1zm8.4 12.07h-2.87v-10.7h2.85v.6a5.36 5.36 0 012.67-.86c1.43 0 2.41.43 2.96 1.27.54.84.81 2.14.81 3.9v5.8h-2.87v-5.72c0-.92-.1-1.59-.32-2.02-.21-.44-.64-.66-1.28-.66-.59 0-1.15.1-1.7.3l-.25.09v8zM106.56 15v14.98h-2.84v-.45c-1 .47-1.86.71-2.6.71-1.55 0-2.63-.45-3.25-1.35-.61-.9-.92-2.32-.92-4.27 0-1.95.37-3.37 1.1-4.26.74-.89 1.85-1.34 3.33-1.34.46 0 1.1.08 1.9.22l.42.08V15h2.86zm-3.16 12.41l.3-.06v-5.63c-.79-.14-1.49-.21-2.1-.21-1.16 0-1.74 1.02-1.74 3.08 0 1.11.13 1.9.39 2.38.26.47.68.7 1.27.7.6 0 1.22-.08 1.88-.26zm11.75-5.69h-2.64v4.39c0 .43.02.73.04.9.02.19.1.34.23.47.14.13.35.2.63.2l1.63-.05.13 2.29c-.96.21-1.69.32-2.18.32-1.29 0-2.17-.29-2.64-.87-.47-.57-.7-1.64-.7-3.2v-4.45h-1.27v-2.44h1.27v-2.97h2.86v2.97h2.64v2.44zm4.73 8.26H117V15h2.87v4.8a5.85 5.85 0 012.65-.78c1.43 0 2.41.43 2.96 1.27.54.84.8 2.14.8 3.9v5.8h-2.86v-5.74c0-.9-.1-1.57-.32-2-.21-.44-.64-.66-1.28-.66-.56 0-1.12.09-1.67.26l-.28.09v8.04zm11.32-4.13c.02.66.19 1.13.53 1.43.33.29.81.43 1.44.43 1.33 0 2.51-.04 3.55-.12l.6-.07.05 2.12a19 19 0 01-4.46.6c-1.6 0-2.78-.43-3.5-1.28-.73-.86-1.1-2.25-1.1-4.18 0-3.84 1.58-5.76 4.73-5.76 3.11 0 4.67 1.62 4.67 4.84l-.22 2h-6.29zm3.68-2.18c0-.86-.13-1.45-.4-1.79-.28-.33-.75-.5-1.43-.5-.68 0-1.15.17-1.43.52s-.43.94-.44 1.77h3.7zm7.75 6.31h-2.87v-10.7h2.85v.6a5.28 5.28 0 012.52-.86c1.16 0 2.05.34 2.68 1.01a8 8 0 013.6-1c1.4 0 2.39.4 2.94 1.22.55.83.82 2.13.82 3.93v5.8h-2.86v-5.71c0-.92-.1-1.59-.3-2.02-.2-.44-.6-.66-1.2-.66-.46 0-1.02.1-1.67.3l-.32.1c.05 1.08.08 1.9.08 2.45v5.54h-2.87v-5.5c0-1.05-.09-1.8-.27-2.23-.19-.44-.6-.66-1.22-.66-.56 0-1.11.1-1.65.3l-.26.09v8zm17.44-4.13c.02.66.2 1.13.53 1.43.34.29.82.43 1.44.43 1.33 0 2.52-.04 3.56-.12l.6-.07.04 2.12a19 19 0 01-4.45.6c-1.61 0-2.78-.43-3.51-1.28-.73-.86-1.1-2.25-1.1-4.18 0-3.84 1.58-5.76 4.74-5.76 3.1 0 4.66 1.62 4.66 4.84l-.21 2h-6.3zm3.69-2.18c0-.86-.14-1.45-.41-1.79-.27-.33-.75-.5-1.42-.5-.68 0-1.16.17-1.44.52s-.42.94-.44 1.77h3.7zM177.73 15v14.98h-2.84v-.45c-1 .47-1.86.71-2.6.71-1.55 0-2.63-.45-3.25-1.35-.61-.9-.92-2.32-.92-4.27 0-1.95.37-3.37 1.1-4.26.74-.89 1.85-1.34 3.33-1.34.46 0 1.1.08 1.9.22l.42.08V15h2.86zm-3.16 12.41l.3-.06v-5.63c-.79-.14-1.49-.21-2.1-.21-1.16 0-1.74 1.02-1.74 3.08 0 1.11.13 1.9.39 2.38.26.47.68.7 1.27.7.6 0 1.22-.08 1.88-.26zm5.82 2.57v-10.7h2.87v10.7h-2.87zm0-12.07V15h2.87v2.91h-2.87zm13.72 4.71v4.45c.03.34.08.58.17.72.09.13.26.23.53.29l-.08 2.16a8.1 8.1 0 01-1.74-.15c-.44-.1-.88-.3-1.32-.6-1.03.5-2.08.75-3.15.75-2.21 0-3.32-1.17-3.32-3.51 0-1.14.31-1.95.93-2.43a5.16 5.16 0 012.82-.85l2.29-.17v-.66c0-.44-.1-.75-.3-.91-.2-.16-.52-.25-.96-.25l-4.03.18-.08-2c1.53-.4 2.98-.62 4.35-.62 1.38 0 2.37.29 2.98.86.6.57.9 1.48.9 2.74zm-4.82 2.83c-.8.07-1.2.5-1.2 1.28s.35 1.18 1.05 1.18c.55 0 1.14-.09 1.78-.26l.32-.09v-2.29l-1.95.18z" /></svg>